<svg xmlns="http://www.w3.org/2000/svg" width="47.768" height="45.194" viewBox="0 0 47.768 45.194">
  <g id="_10424989031555931400" data-name="10424989031555931400" transform="translate(0 -2.806)">
    <path id="Path_35" data-name="Path 35" d="M40.432,13.1c-5.528-2.646-10.562-1.053-14.606.227-3.6,1.14-5.7,1.7-7.025.075-.4-.537-.091-1.572.237-2.668.482-1.608,1.083-3.609-.242-5.337-1.709-2.243-5.522-1.924-8.023-.212a23,23,0,1,0,35.37,25.059C46.465,28.94,49.051,17.407,40.432,13.1ZM34,28a4,4,0,1,1,4-4A4,4,0,0,1,34,28Z" fill="#fff" stroke="#2e89ba" stroke-width="2"/>
    <circle id="Ellipse_5" data-name="Ellipse 5" cx="3" cy="3" r="3" transform="translate(7 21)" fill="#e86c60"/>
    <circle id="Ellipse_6" data-name="Ellipse 6" cx="3" cy="3" r="3" transform="translate(12 31)" fill="#efd358"/>
    <circle id="Ellipse_7" data-name="Ellipse 7" cx="3" cy="3" r="3" transform="translate(23 35)" fill="#43a6dd"/>
  </g>
</svg>
