<svg xmlns="http://www.w3.org/2000/svg" width="46.667" height="36.271" viewBox="0 0 46.667 36.271">
  <g id="_13703107221582823582" data-name="13703107221582823582" transform="translate(-1.751 -15.625)">
    <path id="Path_3" data-name="Path 3" d="M39.511,33.472a.676.676,0,0,0-.58-.431L36.8,32.9A17.526,17.526,0,1,0,19.28,50.677a1.348,1.348,0,1,0,0-2.7A14.832,14.832,0,1,1,34.1,32.71l-2.42-.162a.679.679,0,0,0-.627.337.668.668,0,0,0,.02.715l2.515,3.775.62.924a.182.182,0,0,0,.047.054.633.633,0,0,0,.452.243.186.186,0,0,0,.061.007.672.672,0,0,0,.3-.074.684.684,0,0,0,.182-.128l1.011-1.038,3.1-3.175A.667.667,0,0,0,39.511,33.472Z" transform="translate(0 0)" fill="#121013"/>
    <circle id="Ellipse_2" data-name="Ellipse 2" cx="1.348" cy="1.348" r="1.348" transform="translate(17.931 20.475)" fill="#121013"/>
    <circle id="Ellipse_3" data-name="Ellipse 3" cx="1.348" cy="1.348" r="1.348" transform="translate(17.931 43.396)" fill="#121013"/>
    <circle id="Ellipse_4" data-name="Ellipse 4" cx="1.348" cy="1.348" r="1.348" transform="translate(6.471 31.935)" fill="#121013"/>
    <path id="Path_4" data-name="Path 4" d="M47.539,41.259a1.348,1.348,0,0,0-1.906.056l-6.528,6.921-2.931-2.481a1.348,1.348,0,1,0-1.742,2.058l3.907,3.306c.027.023.057.039.085.06s.061.046.094.066a1.321,1.321,0,0,0,.126.063c.032.015.062.032.095.044a1.336,1.336,0,0,0,.154.044c.026.006.052.016.078.021a1.352,1.352,0,0,0,.239.022h0a1.352,1.352,0,0,0,.276-.029c.029-.006.057-.018.085-.026a1.327,1.327,0,0,0,.18-.059c.035-.015.066-.037.1-.055A1.328,1.328,0,0,0,40,51.182c.034-.024.063-.054.095-.082s.069-.053.1-.086l7.4-7.85a1.348,1.348,0,0,0-.056-1.906Z" transform="translate(-20.132 -15.795)" fill="#121013"/>
    <path id="Path_5" data-name="Path 5" d="M84.07,81.349a.743.743,0,0,0-.743.743v4.121H81.346a.375.375,0,0,1-.424-.424v-3.7a.743.743,0,1,0-1.486,0v3.7a1.85,1.85,0,0,0,1.91,1.91h1.981v2.885a.743.743,0,1,0,1.486,0V82.091A.743.743,0,0,0,84.07,81.349Z" transform="translate(-48.564 -41.087)" fill="#121013"/>
    <path id="Path_6" data-name="Path 6" d="M65.305,89.84H61.974l3.159-3.159a3.124,3.124,0,1,0-4.418-4.418l-.528.528a.743.743,0,1,0,1.051,1.051l.528-.528a1.638,1.638,0,0,1,2.317,2.317l-4.427,4.427a.743.743,0,0,0,.525,1.268h5.124a.743.743,0,1,0,0-1.486Z" transform="translate(-36.063 -41.087)" fill="#121013"/>
    <path id="Path_7" data-name="Path 7" d="M114.611,80.951a.742.742,0,0,0-.617-.329h-5.416a.743.743,0,1,0,0,1.486h4.308l-3.291,8.011a.743.743,0,0,0,1.374.564l3.712-9.036A.742.742,0,0,0,114.611,80.951Z" transform="translate(-66.319 -40.633)" fill="#121013"/>
    <path id="Path_8" data-name="Path 8" d="M99.023,76.938a.743.743,0,0,0-.857.608L96.158,89.352a.743.743,0,1,0,1.465.249l2.008-11.806a.743.743,0,0,0-.608-.857Z" transform="translate(-59.012 -38.323)" fill="#121013"/>
  </g>
</svg>
