<svg id="_20921262341608672870" data-name="20921262341608672870" xmlns="http://www.w3.org/2000/svg" width="37" height="36.667" viewBox="0 0 37 36.667">
  <path id="Path_15" data-name="Path 15" d="M21.005,1.241A1.382,1.382,0,0,1,22.5,0a1.378,1.378,0,0,1,1.49,1.241V6.663A1.382,1.382,0,0,1,22.5,7.9a1.378,1.378,0,0,1-1.49-1.241V1.241ZM4.327,23.855H7.741a.4.4,0,0,1,.394.4v2.561a.4.4,0,0,1-.394.4H4.327a.4.4,0,0,1-.394-.4V24.255a.4.4,0,0,1,.394-.4Zm13.074-7.3h3.415a.4.4,0,0,1,.271.11,12.23,12.23,0,0,0-3.424,3.255H17.4a.4.4,0,0,1-.394-.4V16.959a.4.4,0,0,1,.394-.4Zm-6.537,0h3.415a.4.4,0,0,1,.394.4v2.561a.4.4,0,0,1-.394.4H10.864a.4.4,0,0,1-.394-.4V16.956a.4.4,0,0,1,.394-.4Zm-6.537,0H7.741a.4.4,0,0,1,.394.4v2.561a.4.4,0,0,1-.394.4H4.327a.4.4,0,0,1-.394-.4V16.956a.4.4,0,0,1,.394-.4Zm6.537,7.3h3.415a.4.4,0,0,1,.394.4v2.561a.4.4,0,0,1-.394.4H10.864a.4.4,0,0,1-.394-.4V24.255a.4.4,0,0,1,.394-.4Zm20.3-5.657A9.674,9.674,0,0,1,34.23,33.855a9.375,9.375,0,0,1-13.375,0,9.653,9.653,0,0,1-2.77-6.788,9.759,9.759,0,0,1,5.887-8.934,9.818,9.818,0,0,1,7.19.064ZM26.088,26.81a1.584,1.584,0,0,1,.419-.33V22.3a.76.76,0,1,1,1.521,0V26.48a1.619,1.619,0,0,1,.653.663h2.939a.77.77,0,0,1,0,1.54H28.68a1.591,1.591,0,0,1-2.623.306,1.653,1.653,0,0,1,.03-2.179Zm7.07-5.29a7.878,7.878,0,0,0-12.815,2.155,8.158,8.158,0,0,0,1.59,9.086,7.855,7.855,0,0,0,11.225,0,8.162,8.162,0,0,0,1.53-9.218,7.435,7.435,0,0,0-1.53-2.023ZM7.627,1.241A1.382,1.382,0,0,1,9.118,0a1.38,1.38,0,0,1,1.49,1.241V6.663A1.384,1.384,0,0,1,9.118,7.9a1.38,1.38,0,0,1-1.49-1.241V1.241ZM1.641,11.855H30.008V5.614a.756.756,0,0,0-.75-.761H26.54a.838.838,0,0,1,0-1.675h2.719a2.376,2.376,0,0,1,1.7.715,2.448,2.448,0,0,1,.7,1.727v9.912a12.189,12.189,0,0,0-1.674-.455v-1.55H1.641V29.7a.756.756,0,0,0,.75.761H15.871a12.433,12.433,0,0,0,.578,1.693H2.406a2.381,2.381,0,0,1-1.7-.715A2.453,2.453,0,0,1,0,29.71V5.621A2.459,2.459,0,0,1,.7,3.894a2.376,2.376,0,0,1,1.7-.715h2.9a.838.838,0,0,1,0,1.675h-2.9a.736.736,0,0,0-.53.223.774.774,0,0,0-.22.538v6.244H1.641v0ZM12.987,4.85a.838.838,0,0,1,0-1.675h5.537a.838.838,0,0,1,0,1.675Z" fill="#121013"/>
</svg>
