<svg xmlns="http://www.w3.org/2000/svg" width="41.016" height="36.271" viewBox="0 0 41.016 36.271">
  <g id="_8353330861637820204" data-name="8353330861637820204" transform="translate(-3 -2)">
    <path id="Path_9" data-name="Path 9" d="M19.39,19.781A1.39,1.39,0,1,0,18,18.39,1.39,1.39,0,0,0,19.39,19.781Z" transform="translate(-4.572 -6.029)" fill="#121013"/>
    <path id="Path_10" data-name="Path 10" d="M27.39,19.781A1.39,1.39,0,1,0,26,18.39,1.39,1.39,0,0,0,27.39,19.781Z" transform="translate(-7.011 -6.029)" fill="#121013"/>
    <path id="Path_11" data-name="Path 11" d="M25.69,24.2l-1.2-.7a2.086,2.086,0,0,1-3.615,0l-1.2.7a3.476,3.476,0,0,0,6.02,0Z" transform="translate(-5.081 -8.624)" fill="#121013"/>
    <path id="Path_12" data-name="Path 12" d="M43.647,36a7.656,7.656,0,1,0,5.4,2.242A7.647,7.647,0,0,0,43.647,36Zm6.216,8.342a6.226,6.226,0,0,1-1.332,3.206L47.58,46.6l-.983.983.951.951a6.226,6.226,0,0,1-3.206,1.332V48.513h-1.39v1.349a6.226,6.226,0,0,1-3.206-1.332l.951-.951-.983-.983-.951.951a6.226,6.226,0,0,1-1.332-3.206h1.349v-1.39H37.431a6.226,6.226,0,0,1,1.332-3.206l.951.951.983-.983-.951-.951a6.226,6.226,0,0,1,3.206-1.332v1.349h1.39V37.431a6.226,6.226,0,0,1,3.206,1.332l-.951.951.983.983.951-.951a6.226,6.226,0,0,1,1.332,3.206H48.513v1.39Z" transform="translate(-10.059 -15.804)" fill="#121013"/>
    <path id="Path_13" data-name="Path 13" d="M45.48,45.188l-1.187,1.187.983.983,1.39-1.39a.7.7,0,0,0,.2-.492V42H45.48Z" transform="translate(-12.586 -16.354)" fill="#121013"/>
    <path id="Path_14" data-name="Path 14" d="M33.588,20.135a11.3,11.3,0,0,0-6.9,2.291l-4.449-1.209a3.785,3.785,0,0,0-1.161-.417V19.4a7.43,7.43,0,0,0,2.852-2.2,6.14,6.14,0,0,0,1.285-3.118h.035a3.005,3.005,0,0,0,1.966-.708,2.2,2.2,0,0,0,0-3.42,3.005,3.005,0,0,0-1.966-.708V6.232a3.978,3.978,0,0,0-1.427-2.991A5.265,5.265,0,0,0,20.38,2H14.818a5.265,5.265,0,0,0-3.439,1.241A3.978,3.978,0,0,0,9.952,6.232V9.254a3.005,3.005,0,0,0-1.966.708,2.2,2.2,0,0,0,0,3.42,3.005,3.005,0,0,0,1.966.708h.035a6.14,6.14,0,0,0,1.285,3.118,7.43,7.43,0,0,0,2.852,2.2v1.4a3.785,3.785,0,0,0-1.161.417L7.387,22.735A6.27,6.27,0,0,0,4.208,24.7,4.949,4.949,0,0,0,3,27.922v9.745a.568.568,0,0,0,.2.427.752.752,0,0,0,.492.177H31.5a.786.786,0,0,0,.41-.127,11.789,11.789,0,0,0,1.675.127,11.272,11.272,0,0,0,7.374-2.656,8.257,8.257,0,0,0,0-12.824A11.272,11.272,0,0,0,33.588,20.135Zm-8.342-9.672a1.507,1.507,0,0,1,.982.355,1.094,1.094,0,0,1,0,1.706,1.513,1.513,0,0,1-.98.357ZM9.952,12.881a1.513,1.513,0,0,1-.98-.357,1.094,1.094,0,0,1,0-1.706,1.507,1.507,0,0,1,.982-.355ZM25.587,23.394a9.073,9.073,0,0,0-1.731,2.581V23.763a2.675,2.675,0,0,0-.167-.883Zm-3.121.369v1.814l-1.39-.907V22.052a2.09,2.09,0,0,1,1.006.664,1.665,1.665,0,0,1,.384,1.047ZM11.342,6.232A2.838,2.838,0,0,1,12.36,4.094a3.757,3.757,0,0,1,2.458-.885H20.38a3.757,3.757,0,0,1,2.458.885,2.838,2.838,0,0,1,1.018,2.137v.6H11.342Zm12.4,1.814a1.875,1.875,0,0,1-.764.875,2.317,2.317,0,0,1-1.2.334H13.428a2.317,2.317,0,0,1-1.2-.334,1.874,1.874,0,0,1-.764-.875Zm-12.4,5.441V9.841a3.765,3.765,0,0,0,2.086.623H21.77a3.765,3.765,0,0,0,2.086-.623v3.645a5.108,5.108,0,0,1-1.833,3.847,6.938,6.938,0,0,1-8.848,0,5.108,5.108,0,0,1-1.833-3.847ZM17.6,24.367a3.765,3.765,0,0,0,2.086-.623v1.227a.48.48,0,0,0,.049.169,5.669,5.669,0,0,1-4.268,0,.48.48,0,0,0,.049-.169V23.744a3.765,3.765,0,0,0,2.086.623Zm-2.086-3.023V19.875a8.5,8.5,0,0,0,4.171,0v1.469a1.7,1.7,0,0,1-.611,1.282,2.313,2.313,0,0,1-2.949,0A1.7,1.7,0,0,1,15.513,21.344Zm-2.781,2.418a1.665,1.665,0,0,1,.384-1.047,2.09,2.09,0,0,1,1.006-.664v2.618l-1.39.907Zm12.513,13.3H9.952V29.2a.585.585,0,0,0-.2-.429L8.36,27.565l-.987.858,1.189,1.028v7.611H4.39v-9.14a3.855,3.855,0,0,1,.94-2.509A4.883,4.883,0,0,1,7.8,23.883l3.705-1a2.675,2.675,0,0,0-.167.883v3.023a.534.534,0,0,0,.1.317.655.655,0,0,0,.281.221.708.708,0,0,0,.313.066.789.789,0,0,0,.417-.121L14.4,26a6.9,6.9,0,0,0,6.4,0l1.947,1.269a.789.789,0,0,0,.417.121.735.735,0,0,0,.222-.048,7.862,7.862,0,0,0,.025,3.815,8.524,8.524,0,0,0,1.838,3.464Zm1.39,0V35.943a10.573,10.573,0,0,0,1.773,1.118Zm6.952,0a10.027,10.027,0,0,1-5.021-1.324,8.209,8.209,0,0,1-3.329-3.527,6.912,6.912,0,0,1-.514-4.541A7.6,7.6,0,0,1,27.2,23.646,9.526,9.526,0,0,1,31.825,21.5a10.3,10.3,0,0,1,5.222.447A8.884,8.884,0,0,1,41.1,24.837,7.152,7.152,0,0,1,42.626,29.2a7.386,7.386,0,0,1-2.649,5.555A9.777,9.777,0,0,1,33.588,37.062Z" fill="#121013"/>
  </g>
</svg>
